<svg width="120" height="101" viewBox="0 0 120 101" fill="none" xmlns="http://www.w3.org/2000/svg">
<path d="M102.565 45.8046H96.2305L99.6107 29.2688H106.828L102.565 45.8046ZM115.598 45.8046H109.264L112.644 29.2688H119.862L115.598 45.8046Z" fill="#939CA3"/>
<path d="M71.4725 74.0951C63.4025 74.0951 57.0988 69.2836 55.8503 62.2185H63.6461C64.6206 65.5379 67.7572 67.7305 71.5943 67.7305C78.0807 67.7305 81.9786 61.6399 81.8568 51.012C81.8568 51.012 81.8264 51.012 81.7959 51.012H81.7655H81.735C80.0297 55.3058 75.5227 58.1988 69.828 58.1988C61.484 58.1988 55.2412 52.0169 55.2412 43.6729C55.2412 34.7807 62.154 28.3552 71.6552 28.3552C78.1111 28.3552 83.349 31.4614 86.2724 37.0647C88.3432 40.6581 89.4091 45.2564 89.4091 50.7379C89.4091 65.3856 82.7399 74.0951 71.4725 74.0951ZM71.6856 52.0474C76.7103 52.0474 80.5169 48.3931 80.5169 43.5511C80.5169 38.6482 76.6799 34.8112 71.7465 34.8112C66.8437 34.8112 62.9762 38.6178 62.9762 43.4293C62.9762 48.3931 66.6914 52.0474 71.6856 52.0474Z" fill="#939CA3"/>
<path d="M44.6133 82.4999H38.7969L41.3244 65.9641H48.7244L44.6133 82.4999Z" fill="#939CA3"/>
<path d="M17.693 74.1255C11.2979 74.1255 6.09053 71.0194 3.13662 65.3856C1.06584 61.7922 0 57.1939 0 51.7428C0 37.0951 6.79094 28.3552 17.9366 28.3552C25.9761 28.3552 32.2189 33.1363 33.5283 40.2317H25.7325C24.7275 36.9124 21.6518 34.7503 17.8757 34.7503C11.2979 34.7503 7.43044 40.8408 7.49135 51.4383H7.64361C9.50122 47.1445 14.0082 44.2819 19.5506 44.2819C27.8946 44.2819 34.1069 50.4334 34.1069 58.7774C34.1069 67.7 27.2246 74.1255 17.693 74.1255ZM17.6321 67.7C22.5045 67.7 26.372 63.863 26.372 59.021C26.372 54.0572 22.7177 50.4334 17.693 50.4334C12.6378 50.4334 8.89217 54.0572 8.89217 58.9297C8.89217 63.8325 12.7292 67.7 17.6321 67.7Z" fill="#939CA3"/>
</svg>
