<svg width="16" height="16" viewBox="0 0 16 16" fill="none" xmlns="http://www.w3.org/2000/svg">
<path fill-rule="evenodd" clip-rule="evenodd" d="M13.5797 7.33791H2.42029C1.97206 7.33791 1.6087 7.70274 1.6087 8.15279V13.2458C1.6087 13.6959 1.97206 14.0607 2.42029 14.0607H13.5797C14.0279 14.0607 14.3913 13.6959 14.3913 13.2458V8.15279C14.3913 7.70274 14.0279 7.33791 13.5797 7.33791ZM2.42029 6.72674C1.63589 6.72674 1 7.36521 1 8.15279V13.2458C1 14.0334 1.63589 14.6719 2.42029 14.6719H13.5797C14.3641 14.6719 15 14.0334 15 13.2458V8.15279C15 7.36521 14.3641 6.72674 13.5797 6.72674H2.42029Z" fill="#939CA3"/>
<path d="M8.71014 6.93046H12.971V6.93046C12.971 7.49302 12.515 7.94907 11.9524 7.94907H9.72875C9.16619 7.94907 8.71014 7.49302 8.71014 6.93046V6.93046Z" fill="#939CA3"/>
<path d="M2.21739 9.78092C2.21739 9.5568 2.39907 9.37512 2.62319 9.37512V9.37512C2.8473 9.37512 3.02899 9.5568 3.02899 9.78092V11.414C3.02899 11.6381 2.8473 11.8198 2.62319 11.8198V11.8198C2.39907 11.8198 2.21739 11.6381 2.21739 11.414V9.78092Z" fill="#939CA3"/>
<path fill-rule="evenodd" clip-rule="evenodd" d="M12.0996 3.4672C12.2651 3.4672 12.361 3.65541 12.2642 3.79014L10.7391 5.91186L9.2141 3.79014C9.11725 3.65541 9.21314 3.4672 9.37862 3.4672H10.4348V1.63371C10.4348 1.46494 10.571 1.32812 10.7391 1.32812C10.9072 1.32813 11.0435 1.46494 11.0435 1.63371V3.4672H12.0996Z" fill="#939CA3"/>
</svg>
