<svg width="16" height="16" viewBox="0 0 16 16" fill="none" xmlns="http://www.w3.org/2000/svg">
<path d="M7.9833 12.2227C10.34 12.2227 12.2227 10.34 12.2227 7.98997C12.2227 5.64664 10.3267 3.76395 7.97663 3.76395C5.63326 3.76395 3.76393 5.63996 3.76393 7.98997C3.76393 10.3467 5.63994 12.2227 7.9833 12.2227ZM8.00329 2.38865C8.38385 2.38865 8.69098 2.08155 8.69098 1.69433C8.69098 1.30711 8.38385 1 8.00329 1C7.61612 1 7.30899 1.30711 7.30899 1.69433C7.30899 2.08155 7.61612 2.38865 8.00329 2.38865ZM11.1478 3.23653C11.5284 3.23653 11.8355 2.92943 11.8355 2.5422C11.8355 2.15498 11.5284 1.84788 11.1478 1.84788C10.7606 1.84788 10.4535 2.15498 10.4535 2.5422C10.4535 2.92943 10.7606 3.23653 11.1478 3.23653ZM13.4578 5.53982C13.8383 5.53982 14.1454 5.23272 14.1454 4.8455C14.1454 4.45827 13.8383 4.15117 13.4578 4.15117C13.0706 4.15117 12.7634 4.45827 12.7634 4.8455C12.7634 5.23272 13.0706 5.53982 13.4578 5.53982ZM14.3057 8.69099C14.6862 8.69099 14.9933 8.38387 14.9933 7.99664C14.9933 7.60947 14.6862 7.30234 14.3057 7.30234C13.9185 7.30234 13.6113 7.60947 13.6113 7.99664C13.6113 8.38387 13.9185 8.69099 14.3057 8.69099ZM13.4578 11.8421C13.8383 11.8421 14.1454 11.5351 14.1454 11.1478C14.1454 10.7606 13.8383 10.4535 13.4578 10.4535C13.0706 10.4535 12.7634 10.7606 12.7634 11.1478C12.7634 11.5351 13.0706 11.8421 13.4578 11.8421ZM11.1478 14.1454C11.5284 14.1454 11.8355 13.8384 11.8355 13.4511C11.8355 13.0639 11.5284 12.7568 11.1478 12.7568C10.7606 12.7568 10.4535 13.0639 10.4535 13.4511C10.4535 13.8384 10.7606 14.1454 11.1478 14.1454ZM8.00329 14.9933C8.38385 14.9933 8.69098 14.6795 8.69098 14.299C8.69098 13.9118 8.38385 13.6047 8.00329 13.6047C7.61612 13.6047 7.30899 13.9118 7.30899 14.299C7.30899 14.6795 7.61612 14.9933 8.00329 14.9933ZM4.85883 14.1454C5.23937 14.1454 5.55315 13.8384 5.55315 13.4511C5.55315 13.0639 5.23937 12.7568 4.85883 12.7568C4.47161 12.7568 4.1645 13.0639 4.1645 13.4511C4.1645 13.8384 4.47161 14.1454 4.85883 14.1454ZM2.54886 11.8421C2.9294 11.8421 3.24318 11.5351 3.24318 11.1478C3.24318 10.7606 2.9294 10.4535 2.54886 10.4535C2.16163 10.4535 1.85453 10.7606 1.85453 11.1478C1.85453 11.5351 2.16163 11.8421 2.54886 11.8421ZM1.70098 8.69099C2.0882 8.69099 2.3953 8.38387 2.3953 7.99664C2.3953 7.60947 2.0882 7.30234 1.70098 7.30234C1.31376 7.30234 1.00665 7.60947 1.00665 7.99664C1.00665 8.38387 1.31376 8.69099 1.70098 8.69099ZM2.54886 5.53982C2.9294 5.53982 3.24318 5.23272 3.24318 4.8455C3.24318 4.45827 2.9294 4.15117 2.54886 4.15117C2.16163 4.15117 1.85453 4.45827 1.85453 4.8455C1.85453 5.23272 2.16163 5.53982 2.54886 5.53982ZM4.85883 3.23653C5.23937 3.23653 5.55315 2.92943 5.55315 2.5422C5.55315 2.15498 5.23937 1.84788 4.85883 1.84788C4.47161 1.84788 4.1645 2.15498 4.1645 2.5422C4.1645 2.92943 4.47161 3.23653 4.85883 3.23653Z" fill="#939CA3"/>
</svg>
