<svg width="16" height="16" viewBox="0 0 16 16" fill="none" xmlns="http://www.w3.org/2000/svg">
<path fill-rule="evenodd" clip-rule="evenodd" d="M4.41225 4.58789C2.52772 4.58789 1 6.11561 1 8.00014C1 9.88467 2.52771 11.4124 4.41225 11.4124H11.5878C13.4723 11.4124 15 9.88467 15 8.00014C15 6.11561 13.4723 4.58789 11.5878 4.58789H4.41225ZM4.42613 5.60148C3.10146 5.60148 2.02761 6.67534 2.02761 8.00001C2.02761 9.32468 3.10146 10.3985 4.42613 10.3985C5.7508 10.3985 6.82466 9.32468 6.82466 8.00001C6.82466 6.67534 5.7508 5.60148 4.42613 5.60148Z" fill="#939CA3"/>
<circle cx="4.42616" cy="7.99989" r="1.891" fill="#939CA3"/>
<path d="M1.1543 3.19963H11.4389L10.6743 1.72404L14.8451 4.2264H2.85897L1.1543 3.19963Z" fill="#939CA3"/>
<path d="M14.8457 12.8004H4.56112L5.32571 14.276L1.15489 11.7736H13.141L14.8457 12.8004Z" fill="#939CA3"/>
</svg>
